<svg width="262" height="164" viewBox="0 0 262 164" fill="none" xmlns="http://www.w3.org/2000/svg">
<path d="M131 0L244.449 123H17.5507L131 0Z" fill="white"/>
<path d="M131.421 24.2148C126.995 24.2148 123.039 28.1519 120.979 33.903C122.69 39.654 126.406 43.5911 130.832 43.5911C135.258 43.5911 139.214 39.654 141.274 33.903C139.564 28.1519 135.847 24.2148 131.421 24.2148ZM136.268 29.3527C137.425 30.5145 138.389 32.0706 139.092 33.903C138.277 35.7353 137.219 37.2914 135.992 38.4532C134.449 39.913 132.696 40.6846 130.921 40.6846C129.146 40.6846 127.439 39.913 125.985 38.4532C124.828 37.2914 123.865 35.7352 123.162 33.903C123.976 32.0706 125.034 30.5144 126.262 29.3527C126.342 29.277 126.422 29.2037 126.504 29.1317C126.281 29.959 126.146 30.852 126.118 31.7837C125.987 36.0641 128.154 39.5342 130.956 39.5342C133.758 39.5342 136.135 36.0641 136.265 31.7837C136.293 30.852 136.212 29.959 136.04 29.1316C136.117 29.2036 136.193 29.277 136.268 29.3527ZM131.221 30.8149C131.172 32.4201 130.28 33.7213 129.23 33.7213C128.179 33.7213 127.367 32.4201 127.415 30.8149C127.464 29.2097 128.356 27.9084 129.406 27.9084C130.457 27.9084 131.269 29.2097 131.221 30.8149Z" fill="#563BC2"/>
<path d="M34.2139 60.9029H51.7099C55.5439 60.9029 58.4329 61.6319 60.3769 63.0899C62.3749 64.4939 63.6979 66.4919 64.3459 69.0839C65.0479 71.6759 65.3989 75.1049 65.3989 79.3709C65.3989 83.4749 65.0749 86.8499 64.4269 89.4959C63.7789 92.0879 62.4289 94.1399 60.3769 95.6519C58.3789 97.1639 55.4359 97.9199 51.5479 97.9199H43.4479V116.631H34.2139V60.9029ZM49.3609 89.5769C51.4669 89.5769 52.9789 89.3069 53.8969 88.7669C54.8149 88.2269 55.4089 87.2819 55.6789 85.9319C55.9489 84.5819 56.0839 82.3949 56.0839 79.3709C56.0839 76.4009 55.9489 74.2409 55.6789 72.8909C55.4089 71.5409 54.8149 70.5959 53.8969 70.0559C52.9789 69.5159 51.4939 69.2459 49.4419 69.2459H43.4479V89.5769H49.3609ZM71.7758 75.3209H79.7948L80.1188 82.3679H80.6858C81.4958 79.4519 82.6838 77.4539 84.2498 76.3739C85.8698 75.2399 87.9758 74.6729 90.5678 74.6729V83.9879C88.0838 83.9879 86.1128 84.4199 84.6548 85.2839C83.1968 86.1479 82.1438 87.5519 81.4958 89.4959C80.8478 91.4399 80.5238 94.1399 80.5238 97.5959V116.631H71.7758V75.3209ZM96.1371 65.3579V56.4479H105.047V65.3579H96.1371ZM96.2181 116.631V75.3209H104.966V116.631H96.2181ZM127.149 117.279C124.935 117.279 122.505 117.171 119.859 116.955C117.213 116.739 114.918 116.442 112.974 116.064V108.207C117.564 108.693 121.425 108.936 124.557 108.936C128.337 108.936 130.74 108.342 131.766 107.154C132.306 106.614 132.657 105.885 132.819 104.967C132.981 103.995 133.062 102.699 133.062 101.079C133.062 98.8109 132.927 97.1909 132.657 96.2189C132.387 95.2469 131.847 94.5449 131.037 94.1129C130.281 93.6269 128.931 93.2219 126.987 92.8979L118.968 91.5209C116.268 91.0889 114.405 89.6579 113.379 87.2279C112.407 84.7979 111.921 81.2879 111.921 76.6979C111.921 72.3779 112.542 69.0299 113.784 66.6539C115.026 64.2239 116.781 62.5499 119.049 61.6319C121.317 60.7139 124.206 60.2549 127.716 60.2549C129.984 60.2549 132.279 60.4169 134.601 60.7409C136.977 61.0109 138.867 61.3349 140.271 61.7129V69.4079C137.463 68.8679 134.169 68.5979 130.389 68.5979C128.229 68.5979 126.555 68.7059 125.367 68.9219C124.179 69.1379 123.288 69.5159 122.694 70.0559C122.046 70.5959 121.614 71.3249 121.398 72.2429C121.236 73.1609 121.155 74.5379 121.155 76.3739C121.155 78.3179 121.263 79.7219 121.479 80.5859C121.695 81.3959 122.073 81.9899 122.613 82.3679C123.207 82.7459 124.179 83.0429 125.529 83.2589L133.062 84.5549C135.168 84.8789 136.869 85.4999 138.165 86.4179C139.515 87.3359 140.541 88.8749 141.243 91.0349C141.945 93.2489 142.296 96.1919 142.296 99.8639C142.296 104.67 141.729 108.342 140.595 110.88C139.461 113.364 137.814 115.065 135.654 115.983C133.548 116.847 130.713 117.279 127.149 117.279ZM186.553 93.8699C186.553 90.1979 186.445 87.6599 186.229 86.2559C186.067 84.7979 185.689 83.8799 185.095 83.5019C184.501 83.0699 183.421 82.8539 181.855 82.8539C180.235 82.8539 179.047 83.2049 178.291 83.9069C177.589 84.6089 177.13 85.7699 176.914 87.3899C176.752 88.9559 176.671 91.5209 176.671 95.0849V116.631H167.923V93.8699C167.923 90.1979 167.815 87.6599 167.599 86.2559C167.437 84.7979 167.059 83.8799 166.465 83.5019C165.871 83.0699 164.791 82.8539 163.225 82.8539C161.605 82.8539 160.444 83.2049 159.742 83.9069C159.04 84.6089 158.581 85.7699 158.365 87.3899C158.203 88.9559 158.122 91.5209 158.122 95.0849V116.631H149.374V75.3209H157.393L157.717 80.5049H158.203C158.959 78.4529 160.066 76.9679 161.524 76.0499C162.982 75.1319 164.953 74.6729 167.437 74.6729C170.083 74.6729 172.054 75.1319 173.35 76.0499C174.7 76.9679 175.618 78.4529 176.104 80.5049H176.59C177.292 78.4529 178.399 76.9679 179.911 76.0499C181.423 75.1319 183.448 74.6729 185.986 74.6729C188.524 74.6729 190.441 75.1859 191.737 76.2119C193.087 77.2379 194.005 78.8039 194.491 80.9099C195.031 82.9619 195.301 85.7969 195.301 89.4149V116.631H186.553V93.8699ZM211.331 117.279C207.929 117.279 205.472 116.307 203.96 114.363C202.502 112.419 201.773 109.287 201.773 104.967C201.773 101.781 202.097 99.2699 202.745 97.4339C203.393 95.5979 204.446 94.2749 205.904 93.4649C207.416 92.6549 209.495 92.2499 212.141 92.2499C214.193 92.2499 217.055 92.3579 220.727 92.5739V90.5489C220.727 87.9029 220.511 86.0129 220.079 84.8789C219.701 83.7449 218.999 83.0159 217.973 82.6919C217.001 82.3679 215.354 82.2059 213.032 82.2059C210.71 82.2059 207.605 82.4219 203.717 82.8539V75.9689C207.497 75.1049 211.439 74.6729 215.543 74.6729C219.431 74.6729 222.347 75.1859 224.291 76.2119C226.289 77.2379 227.639 78.9119 228.341 81.2339C229.097 83.5019 229.475 86.7689 229.475 91.0349V116.631H221.375L221.051 111.528H220.565C219.269 115.362 216.191 117.279 211.331 117.279ZM215.138 109.341C216.164 109.341 217.028 109.233 217.73 109.017C218.432 108.801 219.053 108.369 219.593 107.721C220.349 106.695 220.727 104.427 220.727 100.917V98.7299H214.652C213.464 98.7299 212.573 98.8649 211.979 99.1349C211.439 99.4049 211.034 99.9179 210.764 100.674C210.548 101.43 210.44 102.591 210.44 104.157C210.44 106.263 210.737 107.667 211.331 108.369C211.925 109.017 213.194 109.341 215.138 109.341Z" fill="#30149F"/>
</svg>
