<svg width="254" height="149" viewBox="0 0 254 149" fill="none" xmlns="http://www.w3.org/2000/svg">
<path d="M127 0L236.985 111.75H17.0148L127 0Z" fill="white"/>
<path d="M127.408 22C123.117 22 119.282 25.577 117.285 30.802C118.943 36.027 122.547 39.604 126.837 39.604C131.128 39.604 134.963 36.027 136.96 30.802C135.302 25.577 131.699 22 127.408 22ZM132.107 26.6679C133.229 27.7234 134.163 29.1373 134.845 30.802C134.055 32.4667 133.029 33.8806 131.839 34.9361C130.344 36.2624 128.644 36.9634 126.923 36.9634C125.202 36.9634 123.548 36.2624 122.138 34.9361C121.017 33.8805 120.083 32.4667 119.401 30.802C120.191 29.1372 121.216 27.7234 122.406 26.6679C122.484 26.5992 122.562 26.5325 122.641 26.4671C122.425 27.2188 122.294 28.0301 122.267 28.8766C122.14 32.7655 124.24 35.9182 126.957 35.9182C129.673 35.9182 131.978 32.7655 132.104 28.8766C132.131 28.0301 132.053 27.2188 131.886 26.4671C131.96 26.5325 132.034 26.5992 132.107 26.6679ZM127.214 27.9964C127.166 29.4547 126.302 30.637 125.284 30.637C124.265 30.637 123.477 29.4547 123.525 27.9964C123.572 26.538 124.436 25.3558 125.455 25.3558C126.474 25.3558 127.261 26.538 127.214 27.9964Z" fill="#563BC2"/>
<path d="M30.1984 53.272H47.6944C51.5284 53.272 54.4174 54.001 56.3614 55.459C58.3594 56.863 59.6824 58.861 60.3304 61.453C61.0324 64.045 61.3834 67.474 61.3834 71.74C61.3834 75.844 61.0594 79.219 60.4114 81.865C59.7634 84.457 58.4134 86.509 56.3614 88.021C54.3634 89.533 51.4204 90.289 47.5324 90.289H39.4324V109H30.1984V53.272ZM45.3454 81.946C47.4514 81.946 48.9634 81.676 49.8814 81.136C50.7994 80.596 51.3934 79.651 51.6634 78.301C51.9334 76.951 52.0684 74.764 52.0684 71.74C52.0684 68.77 51.9334 66.61 51.6634 65.26C51.3934 63.91 50.7994 62.965 49.8814 62.425C48.9634 61.885 47.4784 61.615 45.4264 61.615H39.4324V81.946H45.3454ZM67.7603 67.69H75.7793L76.1033 74.737H76.6703C77.4803 71.821 78.6683 69.823 80.2343 68.743C81.8543 67.609 83.9603 67.042 86.5523 67.042V76.357C84.0683 76.357 82.0973 76.789 80.6393 77.653C79.1813 78.517 78.1283 79.921 77.4803 81.865C76.8323 83.809 76.5083 86.509 76.5083 89.965V109H67.7603V67.69ZM92.1217 57.727V48.817H101.032V57.727H92.1217ZM92.2027 109V67.69H100.951V109H92.2027ZM123.134 109.648C120.92 109.648 118.49 109.54 115.844 109.324C113.198 109.108 110.903 108.811 108.959 108.433V100.576C113.549 101.062 117.41 101.305 120.542 101.305C124.322 101.305 126.725 100.711 127.751 99.523C128.291 98.983 128.642 98.254 128.804 97.336C128.966 96.364 129.047 95.068 129.047 93.448C129.047 91.18 128.912 89.56 128.642 88.588C128.372 87.616 127.832 86.914 127.022 86.482C126.266 85.996 124.916 85.591 122.972 85.267L114.953 83.89C112.253 83.458 110.39 82.027 109.364 79.597C108.392 77.167 107.906 73.657 107.906 69.067C107.906 64.747 108.527 61.399 109.769 59.023C111.011 56.593 112.766 54.919 115.034 54.001C117.302 53.083 120.191 52.624 123.701 52.624C125.969 52.624 128.264 52.786 130.586 53.11C132.962 53.38 134.852 53.704 136.256 54.082V61.777C133.448 61.237 130.154 60.967 126.374 60.967C124.214 60.967 122.54 61.075 121.352 61.291C120.164 61.507 119.273 61.885 118.679 62.425C118.031 62.965 117.599 63.694 117.383 64.612C117.221 65.53 117.14 66.907 117.14 68.743C117.14 70.687 117.248 72.091 117.464 72.955C117.68 73.765 118.058 74.359 118.598 74.737C119.192 75.115 120.164 75.412 121.514 75.628L129.047 76.924C131.153 77.248 132.854 77.869 134.15 78.787C135.5 79.705 136.526 81.244 137.228 83.404C137.93 85.618 138.281 88.561 138.281 92.233C138.281 97.039 137.714 100.711 136.58 103.249C135.446 105.733 133.799 107.434 131.639 108.352C129.533 109.216 126.698 109.648 123.134 109.648ZM182.538 86.239C182.538 82.567 182.43 80.029 182.214 78.625C182.052 77.167 181.674 76.249 181.08 75.871C180.486 75.439 179.406 75.223 177.84 75.223C176.22 75.223 175.032 75.574 174.276 76.276C173.574 76.978 173.115 78.139 172.899 79.759C172.737 81.325 172.656 83.89 172.656 87.454V109H163.908V86.239C163.908 82.567 163.8 80.029 163.584 78.625C163.422 77.167 163.044 76.249 162.45 75.871C161.856 75.439 160.776 75.223 159.21 75.223C157.59 75.223 156.429 75.574 155.727 76.276C155.025 76.978 154.566 78.139 154.35 79.759C154.188 81.325 154.107 83.89 154.107 87.454V109H145.359V67.69H153.378L153.702 72.874H154.188C154.944 70.822 156.051 69.337 157.509 68.419C158.967 67.501 160.938 67.042 163.422 67.042C166.068 67.042 168.039 67.501 169.335 68.419C170.685 69.337 171.603 70.822 172.089 72.874H172.575C173.277 70.822 174.384 69.337 175.896 68.419C177.408 67.501 179.433 67.042 181.971 67.042C184.509 67.042 186.426 67.555 187.722 68.581C189.072 69.607 189.99 71.173 190.476 73.279C191.016 75.331 191.286 78.166 191.286 81.784V109H182.538V86.239ZM207.316 109.648C203.914 109.648 201.457 108.676 199.945 106.732C198.487 104.788 197.758 101.656 197.758 97.336C197.758 94.15 198.082 91.639 198.73 89.803C199.378 87.967 200.431 86.644 201.889 85.834C203.401 85.024 205.48 84.619 208.126 84.619C210.178 84.619 213.04 84.727 216.712 84.943V82.918C216.712 80.272 216.496 78.382 216.064 77.248C215.686 76.114 214.984 75.385 213.958 75.061C212.986 74.737 211.339 74.575 209.017 74.575C206.695 74.575 203.59 74.791 199.702 75.223V68.338C203.482 67.474 207.424 67.042 211.528 67.042C215.416 67.042 218.332 67.555 220.276 68.581C222.274 69.607 223.624 71.281 224.326 73.603C225.082 75.871 225.46 79.138 225.46 83.404V109H217.36L217.036 103.897H216.55C215.254 107.731 212.176 109.648 207.316 109.648ZM211.123 101.71C212.149 101.71 213.013 101.602 213.715 101.386C214.417 101.17 215.038 100.738 215.578 100.09C216.334 99.064 216.712 96.796 216.712 93.286V91.099H210.637C209.449 91.099 208.558 91.234 207.964 91.504C207.424 91.774 207.019 92.287 206.749 93.043C206.533 93.799 206.425 94.96 206.425 96.526C206.425 98.632 206.722 100.036 207.316 100.738C207.91 101.386 209.179 101.71 211.123 101.71Z" fill="#563BC2"/>
</svg>
